PathFileType	4	(X/Y/Z)	21_1_3_p0_0-513.trc
DataRate	CameraRate	NumFrames	NumMarkers	Units	OrigDataRate	OrigDataStartFrame	OrigNumFrames
59.0	59.0	6	27	m	59.0	64	514
Frame#	Time	RHip			RKnee			RAnkle			RBigToe			RSmallToe			RHeel			LHip			LKnee			LAnkle			LBigToe			LSmallToe			LHeel			Neck			Head			Nose			RShoulder			RElbow			RWrist			RThumb			RIndex			RPinky			LShoulder			LElbow			LWrist			LThumb			LIndex			LPinky			
		X1	Y1	Z1	X2	Y2	Z2	X3	Y3	Z3	X4	Y4	Z4	X5	Y5	Z5	X6	Y6	Z6	X7	Y7	Z7	X8	Y8	Z8	X9	Y9	Z9	X10	Y10	Z10	X11	Y11	Z11	X12	Y12	Z12	X13	Y13	Z13	X14	Y14	Z14	X15	Y15	Z15	X16	Y16	Z16	X17	Y17	Z17	X18	Y18	Z18	X19	Y19	Z19	X20	Y20	Z20	X21	Y21	Z21	X22	Y22	Z22	X23	Y23	Z23	X24	Y24	Z24	X25	Y25	Z25	X26	Y26	Z26	X27	Y27	Z27	
64	1.0847457627118644	0.2957716007779319	0.45654390826051006	1.0818132173181112	0.2853054308968828	0.5177781242114129	1.536754019406694	0.25735392257570633	0.6445076869561055	1.9762846520855564	0.2736481061932482	0.4221075447792478	1.9820782930139766	0.3332497323433698	0.47158602978666986	1.9882486902374423	0.24134510469923906	0.693158028041745	2.0307460745181536	0.10444203847691892	0.4739560939516196	1.084699936164797	0.0865211394964442	0.5546175507214084	1.5604127728579256	0.09843816351089615	0.6085409941663172	1.9593235809828193	0.10175939388669716	0.4056088040440062	1.97604783805041	0.04635270367124052	0.4662648165018388	1.9889852635170622	0.12637809769236316	0.6709939961106516	2.0178812803806063	0.21274357093672025	0.4549935709828279	0.49954621666915816	0.23375921619787773	0.4350806205317562	0.2562222157856364	0.21897479446232265	0.3512998178109333	0.3890281496314389	0.3586901631006895	0.4671997934199653	0.5972544206387181	0.3690896036399127	0.43719017314219505	0.873026888031531	0.27797252202820005	0.2907887754516477	1.0455493581012631	0.17468872948937622	0.2803071271684336	1.1194139534322263	0.182276494340228	0.2998277636990273	1.1450666295435679	0.20828591448165476	0.33967140562150905	1.1698865106867606	0.06268185677758915	0.4254042052490929	0.5798597505827205	0.04483531649035297	0.4094935060730135	0.8583796321967321	0.1383329199536191	0.3107735785172038	1.0438280952038985	0.20582513678778516	0.3262894536638163	1.1212391254607046	0.2059370957081692	0.33210780001293677	1.1501639915231423	0.1892047240855807	0.30495685269451894	1.1542925531504313
65	1.1016949152542372	0.29527668740009244	0.454915009671892	1.0774584579617938	0.2844866783123016	0.5160957050673228	1.5317195942027202	0.2601273276739876	0.6582876971576384	1.9836030248899594	0.2766907978818108	0.43428663108623544	1.989067524829564	0.3332388070726654	0.4716250751085543	1.9882589015719592	0.24175392636939838	0.6915206404773412	2.0346458225855213	0.10407445314618073	0.47206904417454976	1.0805547559394462	0.08597160544560273	0.5526625387535521	1.5550935072506586	0.09837596844439253	0.6084451902834142	1.9593143111222133	0.1018007070045818	0.40548285293950537	1.9760023165946734	0.0463697983934965	0.4662067918343628	1.9889638051375789	0.11831513116599249	0.673645958764374	2.0198899546697553	0.21276609962195064	0.45500076936072653	0.49954487187309826	0.2337464141684788	0.4350525294429314	0.25623459108043656	0.21896558530620577	0.3512631492071375	0.38900940968973696	0.35868672872782636	0.46727414512441046	0.5972507950466129	0.3692038933658036	0.43615229101255126	0.8766020284376368	0.27522776417944933	0.28095790959585853	1.0429322471890285	0.17460188989201011	0.28042147355222097	1.1196358384414382	0.1847480740656821	0.310160920742834	1.1480098718486056	0.20773747165138032	0.33750550101562776	1.1647529488045056	0.06253972508740539	0.42414113431144407	0.5763962420983999	0.044864161098527804	0.40962802515800106	0.8583883550619456	0.13837039095744155	0.31073612953101143	1.0436954430354206	0.2060195322956715	0.3269523178306239	1.1210735873898718	0.20598944472386174	0.3322731848154546	1.1502645167816588	0.18725256586310624	0.2943672716422398	1.1472272320478418
66	1.11864406779661	0.295740959963786	0.4564958105729704	1.0818024216240716	0.2852438861932284	0.5178885344485563	1.536709989346943	0.25725690507166926	0.6443552425232186	1.9762429185855557	0.27667119932589984	0.43459190369660605	1.9893853687594902	0.3286249643952173	0.487551454588968	1.9978353846223353	0.23847962301686249	0.6778506213972367	2.027364122676232	0.10395402652280852	0.4723050860422535	1.0807590417759405	0.08646289103699803	0.5543267253330592	1.560308788891044	0.09839857918220826	0.6087728170725131	1.9592862845830776	0.09613745769445503	0.41991288197723164	1.9848707323057024	0.040266408613305736	0.48019903357755506	1.9972494648476107	0.12400965014634933	0.6572644740516271	2.010029168587203	0.2127220014248842	0.45505024847654535	0.49947441238614765	0.23374786690770202	0.43508790933553865	0.2562543028723451	0.21910563943253225	0.35155204215788277	0.38576716066036065	0.35884634806691434	0.4665112359342985	0.6003347102466112	0.36900444358220413	0.4369879125485183	0.8729018857562834	0.2751541643578836	0.28087712665267556	1.0430540554859626	0.17072416703226134	0.2777649913084162	1.1185248950533342	0.17744423075910667	0.29511519223358673	1.1395279710348165	0.20297360333282194	0.34880787912497624	1.1682906987630264	0.06253793224590264	0.42426715779717367	0.5763810009901558	0.04493512660206546	0.40988203362446624	0.8582271047664449	0.14329551270741903	0.29893715444585456	1.0402692397963083	0.20612224881307528	0.3268806485610475	1.1209478475403627	0.20601087400443932	0.3319784805011795	1.1501100256303842	0.18719310922259433	0.2942792677486856	1.1471106018751087
67	1.1355932203389831	0.29522586947040186	0.45502705234359375	1.077644223828119	0.2807201019715795	0.5139558128403834	1.5310056362132813	0.25726727521207116	0.6442310267185007	1.976110283039719	0.2766469095250695	0.4345295133878889	1.9895529861283596	0.3287987107806497	0.4879803944168506	1.9979784956173414	0.2385219179942092	0.6777392809203616	2.027340774826352	0.10331522155516593	0.47264688279692035	1.084725272424349	0.08651803106240084	0.55460473010089	1.5604361021163684	0.09837725989611577	0.608829625652295	1.9592837345651792	0.09617595728292622	0.4196888644858576	1.9847560664680355	0.036309040593516896	0.47792391890723795	1.9963288229644853	0.1184795367854322	0.6734225461979638	2.0192967274970846	0.21274024679209844	0.45498668166523004	0.4994976832172348	0.23376101451041587	0.43514806488309987	0.2562469947738854	0.21914227493254504	0.35155353458312816	0.3857071684834374	0.3586034539688631	0.4671676471366224	0.5972189471795013	0.36887741755044784	0.4367928047817125	0.8729507823996163	0.2751411071481524	0.2808332778393235	1.0430292642403765	0.1707327133361614	0.2777931394796258	1.1186740720805894	0.1775243409842608	0.2949766328402844	1.139537900876406	0.20299041553460062	0.3485786956735848	1.1681516675791919	0.06256957179986113	0.42424873675335717	0.5763946636415818	0.04495158704151136	0.4098732854149393	0.8582288580718964	0.1430278773482894	0.2974071678560475	1.0359421716932302	0.20615626008327467	0.32689630174443396	1.1208696012966415	0.20589161607872625	0.33168711625770325	1.1500397215297031	0.18645365813578973	0.2940574116409299	1.1510011404355174
68	1.152542372881356	0.2951984764462173	0.45477177888613307	1.0773750488771061	0.2806984514313778	0.5139162587305903	1.5310171576974883	0.25731412067872833	0.6441705665226785	1.9759950553264742	0.27674188026239543	0.43451158134823975	1.9894022458448988	0.33360357861704004	0.4723238414552011	1.9885650926186698	0.23861594202964553	0.6777060210427831	2.0269927098617	0.10350003129961681	0.47047007860118045	1.07669902389183	0.08656955198370143	0.5545346907165979	1.5605871188675706	0.09843301069141716	0.6086834992499716	1.9593166189685802	0.10173696380156201	0.40565015331054216	1.9759729154658061	0.042369852617141546	0.4641864217398477	1.9879195093289248	0.12410489869102621	0.6574705848478618	2.010301093538327	0.21272721882185916	0.45495798455602604	0.4994828950743198	0.23372770005285534	0.4351980999247025	0.2562423998419035	0.21905864474378245	0.35150992540932324	0.38572510031209667	0.35860305955981725	0.4670649016590093	0.5971900896682664	0.3689159003825727	0.4366526701472761	0.8727850121973901	0.2708473683783808	0.29249487545890024	1.0463630178433245	0.17077184294344658	0.27795141210685076	1.1187179198046069	0.17761885554303516	0.2953204074797826	1.1397667165023213	0.20803430029305373	0.33829323520410487	1.168769632638799	0.06256905462299807	0.42418885721655114	0.576322355961162	0.04495822759033282	0.4097635099691804	0.8581843858401056	0.14300074853635808	0.29743348238769074	1.0357796941165858	0.20622608169871842	0.3275200531223042	1.1206402857622295	0.20592998113279276	0.3318106815472327	1.149988246374119	0.18701387272778602	0.2928326050481117	1.1469206709006308
69	1.1694915254237288	0.2943350398880729	0.4543404270545531	1.069677076453254	0.27974865468543036	0.5142447235587023	1.5358894262766882	0.2572484631409827	0.6444183988644736	1.9761740478703533	0.2734629624249794	0.422336737414386	1.9825180357536858	0.3284187488426307	0.48736085321188904	1.9976879964467262	0.24174797747006777	0.6911327360874793	2.0345817410819986	0.10292395395451237	0.4709738467614375	1.0807132689864352	0.08640252444663489	0.5544598242700858	1.5604429068201957	0.09845411681536574	0.6088607783061883	1.9591345034245438	0.09607436445586902	0.4198095362675107	1.9848423915041635	0.036213545257089676	0.47804813489172965	1.9963697743557844	0.1241397463779018	0.6574434977262917	2.0103328401765843	0.21269975157561927	0.45493013422783257	0.4994356399217855	0.2337155108986495	0.43519496923038203	0.25624357819231725	0.21902576817415673	0.35150281074572404	0.38573505829464394	0.35859809806001003	0.4670525102089423	0.5971557767970312	0.3688160170169326	0.4366624923595309	0.872813191466217	0.27085481436059894	0.2926760740511244	1.0463458309971791	0.16688599900367262	0.2752485898981232	1.1180710839504981	0.17739246755193117	0.2948413251744616	1.1393989592786375	0.19984428153307154	0.3374584087984831	1.1646125802890892	0.0625721762473643	0.42416928308192525	0.5763647617864828	0.04502244120109217	0.4098176167114555	0.858175362496869	0.14322348813514127	0.2987919280371034	1.0401723206926823	0.20303102818700122	0.32492196137198737	1.120156202618061	0.20584732218478616	0.3322831862988095	1.1501403852774448	0.18708497275490032	0.2928857469486382	1.146874564007849
